<mxfile host="Electron" modified="2024-05-17T20:05:30.734Z" agent="Mozilla/5.0 (X11; Linux x86_64) AppleWebKit/537.36 (KHTML, like Gecko) draw.io/24.4.0 Chrome/120.0.6099.109 Electron/28.1.0 Safari/537.36" etag="STxdbbzczgisVTUrSqFG" version="24.4.0" type="device">
  <diagram name="Page-1" id="_uc38PvImJXnJ3ykfJpM">
    <mxGraphModel dx="608" dy="460" grid="1" gridSize="10" guides="1" tooltips="1" connect="1" arrows="1" fold="1" page="1" pageScale="1" pageWidth="850" pageHeight="1100" math="0" shadow="0">
      <root>
        <mxCell id="0" />
        <mxCell id="1" parent="0" />
        <mxCell id="Mm9NGHdQuAQcPIw96df3-13" style="edgeStyle=orthogonalEdgeStyle;rounded=0;orthogonalLoop=1;jettySize=auto;html=1;exitX=0.5;exitY=1;exitDx=0;exitDy=0;entryX=0.5;entryY=0;entryDx=0;entryDy=0;" edge="1" parent="1" source="Mm9NGHdQuAQcPIw96df3-5" target="Mm9NGHdQuAQcPIw96df3-6">
          <mxGeometry relative="1" as="geometry" />
        </mxCell>
        <mxCell id="Mm9NGHdQuAQcPIw96df3-5" value="start" style="ellipse;whiteSpace=wrap;html=1;aspect=fixed;" vertex="1" parent="1">
          <mxGeometry x="360" y="40" width="80" height="80" as="geometry" />
        </mxCell>
        <mxCell id="Mm9NGHdQuAQcPIw96df3-9" style="edgeStyle=orthogonalEdgeStyle;rounded=0;orthogonalLoop=1;jettySize=auto;html=1;exitX=1;exitY=0.5;exitDx=0;exitDy=0;" edge="1" parent="1" source="Mm9NGHdQuAQcPIw96df3-6">
          <mxGeometry relative="1" as="geometry">
            <mxPoint x="530" y="280" as="targetPoint" />
          </mxGeometry>
        </mxCell>
        <mxCell id="Mm9NGHdQuAQcPIw96df3-10" value="FALSE" style="edgeLabel;html=1;align=center;verticalAlign=middle;resizable=0;points=[];" vertex="1" connectable="0" parent="Mm9NGHdQuAQcPIw96df3-9">
          <mxGeometry x="-0.4036" y="-1" relative="1" as="geometry">
            <mxPoint as="offset" />
          </mxGeometry>
        </mxCell>
        <mxCell id="Mm9NGHdQuAQcPIw96df3-11" style="edgeStyle=orthogonalEdgeStyle;rounded=0;orthogonalLoop=1;jettySize=auto;html=1;exitX=0;exitY=0.5;exitDx=0;exitDy=0;" edge="1" parent="1" source="Mm9NGHdQuAQcPIw96df3-6" target="Mm9NGHdQuAQcPIw96df3-7">
          <mxGeometry relative="1" as="geometry" />
        </mxCell>
        <mxCell id="Mm9NGHdQuAQcPIw96df3-12" value="TRUE" style="edgeLabel;html=1;align=center;verticalAlign=middle;resizable=0;points=[];" vertex="1" connectable="0" parent="Mm9NGHdQuAQcPIw96df3-11">
          <mxGeometry x="-0.2631" y="-2" relative="1" as="geometry">
            <mxPoint as="offset" />
          </mxGeometry>
        </mxCell>
        <mxCell id="Mm9NGHdQuAQcPIw96df3-6" value="is_path?" style="rhombus;whiteSpace=wrap;html=1;" vertex="1" parent="1">
          <mxGeometry x="360" y="170" width="80" height="80" as="geometry" />
        </mxCell>
        <mxCell id="Mm9NGHdQuAQcPIw96df3-18" style="edgeStyle=orthogonalEdgeStyle;rounded=0;orthogonalLoop=1;jettySize=auto;html=1;exitX=0.5;exitY=1;exitDx=0;exitDy=0;entryX=0.5;entryY=0;entryDx=0;entryDy=0;" edge="1" parent="1" source="Mm9NGHdQuAQcPIw96df3-7" target="Mm9NGHdQuAQcPIw96df3-14">
          <mxGeometry relative="1" as="geometry" />
        </mxCell>
        <mxCell id="Mm9NGHdQuAQcPIw96df3-7" value="create list of files" style="rounded=0;whiteSpace=wrap;html=1;" vertex="1" parent="1">
          <mxGeometry x="210" y="280" width="120" height="60" as="geometry" />
        </mxCell>
        <mxCell id="Mm9NGHdQuAQcPIw96df3-20" style="edgeStyle=orthogonalEdgeStyle;rounded=0;orthogonalLoop=1;jettySize=auto;html=1;exitX=1;exitY=0.5;exitDx=0;exitDy=0;entryX=0.5;entryY=0;entryDx=0;entryDy=0;" edge="1" parent="1" source="Mm9NGHdQuAQcPIw96df3-14">
          <mxGeometry relative="1" as="geometry">
            <mxPoint x="390" y="540" as="targetPoint" />
          </mxGeometry>
        </mxCell>
        <mxCell id="Mm9NGHdQuAQcPIw96df3-21" value="FALSE" style="edgeLabel;html=1;align=center;verticalAlign=middle;resizable=0;points=[];" vertex="1" connectable="0" parent="Mm9NGHdQuAQcPIw96df3-20">
          <mxGeometry x="-0.2975" y="1" relative="1" as="geometry">
            <mxPoint as="offset" />
          </mxGeometry>
        </mxCell>
        <mxCell id="Mm9NGHdQuAQcPIw96df3-27" style="edgeStyle=orthogonalEdgeStyle;rounded=0;orthogonalLoop=1;jettySize=auto;html=1;exitX=0;exitY=0.5;exitDx=0;exitDy=0;entryX=0.5;entryY=0;entryDx=0;entryDy=0;" edge="1" parent="1" source="Mm9NGHdQuAQcPIw96df3-14" target="Mm9NGHdQuAQcPIw96df3-26">
          <mxGeometry relative="1" as="geometry" />
        </mxCell>
        <mxCell id="Mm9NGHdQuAQcPIw96df3-31" value="TRUE" style="edgeLabel;html=1;align=center;verticalAlign=middle;resizable=0;points=[];" vertex="1" connectable="0" parent="Mm9NGHdQuAQcPIw96df3-27">
          <mxGeometry x="0.0422" y="-1" relative="1" as="geometry">
            <mxPoint as="offset" />
          </mxGeometry>
        </mxCell>
        <mxCell id="Mm9NGHdQuAQcPIw96df3-14" value="file_type_supported?" style="rhombus;whiteSpace=wrap;html=1;" vertex="1" parent="1">
          <mxGeometry x="230" y="410" width="80" height="80" as="geometry" />
        </mxCell>
        <mxCell id="Mm9NGHdQuAQcPIw96df3-34" style="edgeStyle=orthogonalEdgeStyle;rounded=0;orthogonalLoop=1;jettySize=auto;html=1;exitX=0.5;exitY=1;exitDx=0;exitDy=0;entryX=0.5;entryY=0;entryDx=0;entryDy=0;" edge="1" parent="1" source="Mm9NGHdQuAQcPIw96df3-26" target="Mm9NGHdQuAQcPIw96df3-32">
          <mxGeometry relative="1" as="geometry" />
        </mxCell>
        <mxCell id="Mm9NGHdQuAQcPIw96df3-26" value="edit_exif" style="rounded=0;whiteSpace=wrap;html=1;" vertex="1" parent="1">
          <mxGeometry x="120" y="540" width="120" height="60" as="geometry" />
        </mxCell>
        <mxCell id="Mm9NGHdQuAQcPIw96df3-29" value="exit(1)" style="ellipse;whiteSpace=wrap;html=1;aspect=fixed;" vertex="1" parent="1">
          <mxGeometry x="490" y="280" width="80" height="80" as="geometry" />
        </mxCell>
        <mxCell id="Mm9NGHdQuAQcPIw96df3-30" value="exit(2)" style="ellipse;whiteSpace=wrap;html=1;aspect=fixed;" vertex="1" parent="1">
          <mxGeometry x="350" y="540" width="80" height="80" as="geometry" />
        </mxCell>
        <mxCell id="Mm9NGHdQuAQcPIw96df3-32" value="finish" style="ellipse;whiteSpace=wrap;html=1;aspect=fixed;" vertex="1" parent="1">
          <mxGeometry x="140" y="660" width="80" height="80" as="geometry" />
        </mxCell>
      </root>
    </mxGraphModel>
  </diagram>
</mxfile>
